<?xml version="1.0" encoding="utf-8"?>
<!-- Generator: Adobe Illustrator 19.2.1, SVG Export Plug-In . SVG Version: 6.00 Build 0)  -->
<svg version="1.1" id="Слой_1" xmlns="http://www.w3.org/2000/svg" xmlns:xlink="http://www.w3.org/1999/xlink" x="0px" y="0px"
	 viewBox="0 0 520 520" style="enable-background:new 0 0 520 520;" xml:space="preserve">
<style type="text/css">
	.st0{fill:#FFFFFF;}
</style>
<polygon class="st0" points="59.8,510.8 47.2,448 34.4,417.7 29.7,413 27.9,407.8 15.4,370.6 6.7,330.5 4,266.1 15.2,236.3 
	24.3,205 26.7,184.5 33.9,155.6 46.5,134.1 88.4,83.8 143.7,27 182,11.2 207.4,6 217.3,0 293.3,0 348.6,0 364.9,12.5 376.5,22.4 
	389.5,35.9 400.4,50.7 423.1,80.2 436.7,93.2 447.3,130.2 468.7,177.1 484,189.2 494.2,210.1 500.4,262.2 503.1,316.3 504.5,371.6 
	504.5,412.5 486.2,450 467.8,499.4 467.2,518.2 467.3,520 61.8,520 "/>
<g>
	<path class="st0" d="M0,312.2c0-1,1.4-1.1,1.6-0.1c1,5.4,1.9,10.8,3.1,16.2c4.4,20.3,7.3,41.1,13.9,60.7
		c6.9,20.4,19.2,39,25.9,59.4c6.6,20,9.3,41.3,13.6,62c0.1,0.4,0.5,0.7,1,0.6c0.6-0.1,1.2-0.3,1.8-0.4c0.4-0.1,0.7-0.5,0.6-0.9
		c-3.8-18.8-7.5-37.5-11.3-56.3c-0.2-0.8,0.8-1.3,1.4-0.8c20.4,19.3,38.3,40.8,67.9,42.1c0.9,0,1.2-1.3,0.3-1.6
		c-29.3-9.5-48.4-31.4-65.1-56.3c-3.9-5.8-6.9-16.1-11.4-16.8c-14.8-2.2-14.4-14.7-17.3-23.2c-7.3-21.2-13.9-43-17.3-65.1
		c-2.8-18.3-0.6-37.3-0.6-56c0-0.4,0.3-0.8,0.8-0.8c0.7,0,1.4-0.1,2.1-0.1c0.5,0,0.8,0.4,0.8,0.8c-1.3,44,3.9,86.5,26.1,125.2
		c0.4,0.7,1.6,0.4,1.5-0.5c-0.1-1-0.3-2.1-0.7-3C23.1,351,16.7,303.1,17.7,254.4c0.3-13.6,4.8-27.2,7.4-40.7c3-15.1,6-30.3,9.3-45.4
		c1.5-7,1.9-15.4,6-20.6c12.6-15.6,26.7-30,40.3-44.8c6.3-6.9,13.3-8.3,22.2-4.7c4.9,2,10.6,2.1,16,3c0.4,0.1,0.7-0.1,0.9-0.5
		c0.5-1.3,1.1-2.7,1.6-4c0.1-0.4,0-0.8-0.3-1c-7-4.3-13.9-8.7-21.3-13.3c-0.4-0.3-0.5-0.8-0.2-1.2c9.6-11.8,19.7-23.7,29.3-36
		C142,28.4,159.3,19,180.4,17.6c15.5-1,31.2-0.6,46.7,0.5c20,1.4,39.9,3.9,59.8,6.4c3.6,0.4,6.9,2.7,11.6,4.8c0.5,0.2,0.6,1,0.2,1.3
		c-6,5.2-10.6,8.8-14.7,12.9c-11.5,11.6-23.9,22.6-33.9,35.4c-9.2,11.9-11.8,26.2-5.1,43.5c0.2,0.6,1.1,0.7,1.5,0.1
		c13-23.4,24.8-44.7,36.6-65.8c0.2-0.3,0.6-0.5,1-0.4c12.2,4.3,13.2,3.6,16.1-8.1c4.5-18.7,4.6-18.8,23.7-18.8c4.8,0,9.5,0,14.3,0
		c0.8-2.4,0.8-2.3,1.6-4.7c-7.3-5.5-14.6-11.1-21.2-16.1c-0.3-0.2-0.6-0.2-0.9-0.1c-5.3,3-9.9,5.6-15.7,8.9
		c-0.5,0.3-1.2-0.1-1.2-0.7V0.8c0-0.4,0.4-0.8,0.8-0.8h38.4c0.1,0,0.3,0,0.4,0.1c22.7,11.3,43.4,25.2,55.6,48.3
		c6.2,11.8,11,24.3,16.5,36.8c0.1,0.3,0.4,0.4,0.7,0.5c15.8,1.6,24.6,10.7,24.7,27.4c0,0.8-1.1,1.1-1.5,0.4
		c-1.5-2.3-2.9-4.5-4.3-6.7c-2.8,1.6-1.6,0.9-4.4,2.5c0.1,0.1,0.1,0.2,0.2,0.4c13.3,26.8,27.4,53.3,39.7,80.5
		c22.6,50.1,34.6,102.3,30,157.9c-1.1,13.2,2.8,26.7,3.5,40.2c0.4,7.5,0.8,16-2.2,22.5c-6.6,14.6-15.2,28.3-22.4,41.1
		c-0.3,0.5-1,0.5-1.3,0.1c-5.8-7.2-11.4-14.2-17.3-21.4c-0.3-0.3-0.2-0.8,0.1-1.1c1.8-1.7,4.4-3.8,6.5-6.2
		c12.5-14.4,16.8-30.7,10.9-49.2c-2.8-8.7-8-13.7-17.4-8.8c-14.5,7.5-29.5,14.3-42.8,23.7c-15.4,10.8-29.1,24.1-43.6,36.2
		c-17.8,14.8-38.2,24.1-60.9,27.6c-21.3,3.2-42.1,4.7-58.7-14.3c-6.4-7.4-14.7-12.9-23.9-16.1c-17.8-6.3-36.1-11.3-54.6-15.1
		c-10.5-2.2-20.6,6.4-22.8,16.1c-2.6,11.4,6.1,15.1,13.7,19c5.8,3,12,5.5,18.3,7.2c25.2,6.7,41.8,21.6,47.8,47.6
		c1,4.3,2.3,9.2,5.1,12.4c3.1,3.6,7.4,6.2,11.4,9c0.6,0.4,1.4-0.1,1.3-0.8c-7.1-39.2-22.4-70-64.5-78.3c-7.3-1.4-13.8-7.4-22.4-12.6
		c-0.5-0.3-0.5-1.2,0.1-1.4c19.9-9.4,36.3-6.4,51.7,2.9c13.3,8,25.8,17.5,38.4,26.7c18.1,13.1,37.8,16.3,59.6,11.8
		c28.7-6,52-21.7,74.7-38.8c21-15.8,42-31.6,63.1-47.1c3.8-2.8,8.3-4.5,13-6.9c0.4-0.2,1,0,1.1,0.5c5.8,18.8,2.1,33.7-11.7,45.2
		c-10,8.4-21.3,15.3-31.7,23.2c-8.4,6.4-16.5,13.1-25.5,20.4c-0.5,0.4-0.4,1.1,0.1,1.4c11.1,5.6,18.3,0.3,25.6-4.6
		c7.1-4.8,14-10.2,21.7-13.7c4.3-1.9,12.8-2.6,14.5-0.3c3.5,4.7,5.6,12.2,4.6,18c-1.1,6.4-6.2,12.2-9.7,18.2
		c-2.3,4-4.9,7.9-9.2,14.9c-0.4,0.6,0.2,1.4,0.9,1.2c19.1-5.2,22.4,5.4,24.7,18.4c0.1,0.7,0.9,0.9,1.4,0.4c2.4-2.6,4.3-5.2,4-7.6
		c-1.9-18.7,5.8-34,14.4-49.8c14.1-25.9,29-50.5,21.9-83.9c-5.7-26.8-3-55.6-2.5-83.4c0.8-48.2-6.1-93.3-38.1-132.5
		c-10.2-12.4-16.1-29.6-20-45.5c-3.2-12.8-7-24.4-15.8-33.8C407,54,381.6,27.7,356.2,1.4c-0.5-0.5-0.1-1.4,0.6-1.4 M389.4,229.7
		c0,0,0.1,0,0.1,0c4.4-0.4,11.9-0.3,18.9-2.1c27.1-7.3,40.2-31.7,31.1-61.1c-11.1-35.7-33.3-64.6-60.4-89.6
		c-12.4-11.4-28.1-12.6-44-9.7c-2.9,0.5-6.9,3.6-7.7,6.2c-4.6,15-15.9,24.3-26.6,34.5c-7.8,7.4-15.4,16.3-19.4,26.1
		c-9.6,23.7-1.3,48.5,20.6,66.9C326.3,221.3,355.4,228.3,389.4,229.7z M69.6,215.3c0,0.1,0,0.3,0,0.4c4.3,13.3,7.2,29.3,14.4,43
		c12.2,22.7,50.6,31.9,67.6,17.6c12.8-10.8,25.1-22.4,36.9-34.4c13.3-13.4,21.6-29.6,24.9-48.5c1.9-10.6,2.4-19.6-9.4-25.6
		c-5.2-2.6-8.2-9.2-13.2-12.7c-7.6-5.2-15.5-11.5-24.2-13.4c-30.8-6.9-58.3,2.2-82.8,21.3c-2.4,1.9-4.7,5-5.4,7.9
		C75.4,184.7,72.8,198.6,69.6,215.3z M286.2,361.8l1.5,3.7c0.2,0.4,0.6,0.6,1,0.4c7.6-3,15.2-6.1,22.8-9.1c0.4-0.2,0.6-0.6,0.5-1.1
		c-0.5-1.2-1-2.5-1.5-3.7c-0.2-0.4-0.6-0.6-1.1-0.5c-7.6,3-15.2,6.1-22.8,9.1C286.2,360.9,286,361.4,286.2,361.8z"/>
	<path class="st0" d="M212,0c-2.8,1.4-5.4,3.8-8.3,4.1c-43.1,4.4-75.6,25.5-100.3,60.8c-8.6,12.3-22.3,18.5-38.3,19.1
		c-8.6,0.3-17,3.8-25.5,5.8c0.2,1,0.5,2,0.7,3c10.2-0.7,20.3-1.4,30.5-2.1c0.9,1.4,1.9,2.8,2.8,4.2c-7.1,9-13.6,18.5-21.3,27
		c-17.2,18.9-29.6,38.3-28.5,66.3c0.7,17.4-8.1,35.1-12.6,52.7c-1.4-0.3-2.8-0.6-4.2-0.9c0-17.5,0-34.9,0-52.4
		c-1.1,0-2.2-0.1-3.2-0.1c-0.4,5.9-0.6,11.8-1.2,17.6c-0.7,7.2-1.7,14.3-2.6,21.5"/>
	<path d="M354.9,0c25.8,26.8,51.6,53.5,77.2,80.5c8.9,9.4,12.7,21,15.8,33.8c3.9,16,9.9,33.1,20,45.5
		c32.1,39.2,38.9,84.3,38.1,132.5c-0.4,27.9-3.2,56.6,2.5,83.4c7.1,33.3-7.8,58-21.9,83.9c-8.6,15.8-16.3,31.1-14.4,49.8
		c0.3,2.8-2.2,5.8-5.2,8.7c-2.4-14.1-5.3-26.1-27-19.3c5.1-8.2,7.8-12.4,10.3-16.7c3.5-6,8.6-11.8,9.7-18.2c1-5.7-1.1-13.3-4.6-18
		c-1.7-2.4-10.3-1.7-14.5,0.3c-7.7,3.5-14.6,8.9-21.7,13.7c-7.5,5.1-14.9,10.5-26.7,4c9.4-7.5,17.8-14.6,26.5-21.1
		c10.5-7.9,21.7-14.9,31.7-23.2c14.1-11.7,17.7-27,11.5-46.2c-4.9,2.6-9.8,4.4-13.8,7.3c-21.2,15.5-42.1,31.3-63.1,47.1
		c-22.7,17.1-46.1,32.8-74.7,38.8c-21.8,4.5-41.5,1.3-59.6-11.8c-12.6-9.1-25.1-18.6-38.4-26.7c-15.7-9.5-32.5-12.4-53-2.2
		c9.2,5.4,15.9,11.9,23.6,13.4c42.9,8.4,57.9,40.1,64.9,80.2c-4.4-3.3-9.5-6-13-10.1c-2.8-3.3-4.1-8.1-5.1-12.4
		c-5.9-26-22.6-40.9-47.8-47.6c-6.3-1.7-12.5-4.2-18.3-7.2c-7.6-3.9-16.3-7.6-13.7-19c2.2-9.7,12.3-18.2,22.8-16.1
		c18.7,3.8,37.2,8.9,55.2,15.3c8.6,3.1,17.3,8.9,23.2,15.8c16.6,19.1,37.5,17.7,58.8,14.4c22.7-3.5,43.2-12.8,60.9-27.6
		c14.5-12.1,28.2-25.3,43.6-36.2c13.3-9.3,28.3-16.1,42.8-23.7c9.4-4.9,14.6,0.1,17.4,8.8c5.9,18.5,1.6,34.8-10.9,49.2
		c-2.3,2.7-5.2,5-7,6.7c6.3,7.8,12.3,15.2,18.5,22.9c7.3-13.1,16.2-27.1,23-42.1c3-6.5,2.6-15,2.2-22.5c-0.7-13.4-4.6-27-3.5-40.2
		c4.6-55.6-7.5-107.8-30-157.9c-12.3-27.3-26.4-53.7-39.7-80.5c-2.3-4.6-4.7-9.3-7-13.9c1-0.6,2-1.3,3-1.9c4.5,7,9,14,14,21.8
		c0.8-18.5-8.2-28.6-25.1-30.1c-5.6-12.7-10.4-25.4-16.7-37.3c-12.3-23.2-33-37-55.8-48.4C345.1,0,350,0,354.9,0z M475.4,185.2
		c-1.2,0.4-2.3,0.8-3.5,1.2c7.4,18.3,14.8,36.6,22.1,54.8C494.8,219.9,490.5,200.4,475.4,185.2z"/>
	<path d="M0,226.7c0.9-7.2,1.9-14.3,2.6-21.5c0.6-5.9,0.8-11.8,1.2-17.6c1.1,0,2.2,0.1,3.2,0.1c0,17.5,0,34.9,0,52.4
		c1.4,0.3,2.8,0.6,4.2,0.9c4.5-17.6,13.3-35.4,12.6-52.7c-1.1-28,11.3-47.4,28.5-66.3c7.7-8.5,14.2-17.9,21.3-27
		c-0.9-1.4-1.9-2.8-2.8-4.2c-10.2,0.7-20.3,1.4-30.5,2.1c-0.2-1-0.5-2-0.7-3c8.5-2,17-5.5,25.5-5.8c16-0.6,29.7-6.7,38.3-19.1
		c24.7-35.3,57.2-56.4,100.3-60.8c2.9-0.3,5.5-2.7,8.3-4.1c4.9,0,9.9,0,14.8,0c-5.9,2.8-11.8,5.6-19.4,9.2c12,1.3,21.7,2.1,31.3,3.3
		c9.7,1.3,19.2,3.4,28.9,4.4c16,1.6,17.4,0.1,18.2-16.8c4.9,0,9.9,0,14.8,0c0,5.3,0,10.6,0,18.4c6.6-3.7,11.5-6.5,17.4-9.8
		c7.4,5.6,15.5,11.7,23.6,17.9c-0.2,1.1-0.4,2.2-0.5,3.2c-5.7,0-11.5,0-17.2,0c-19.1,0-19.2,0-23.7,18.8
		c-2.9,11.8-3.9,12.4-16.7,7.8c-12.1,21.8-24.3,43.7-37.7,67.9c-7.5-18.1-5-32.9,4.4-45.1c9.9-12.9,22.3-23.8,33.9-35.4
		c4.3-4.3,9.1-8.1,15.6-13.8c-5.3-2.3-8.9-4.8-12.7-5.3c-19.9-2.5-39.8-5-59.8-6.4c-15.5-1.1-31.2-1.5-46.7-0.5
		c-21,1.4-38.4,10.7-51.5,27.7C119.1,57.9,108.8,70,99,82c7.8,4.9,15.2,9.5,22.6,14.1c-0.7,1.7-1.4,3.5-2.1,5.2
		c-5.6-1-11.5-1-16.7-3.1c-8.8-3.6-15.9-2.2-22.2,4.7c-13.5,14.9-27.7,29.2-40.3,44.8c-4.1,5.2-4.5,13.5-6,20.6
		c-3.3,15.1-6.3,30.2-9.3,45.4c-2.7,13.5-7.2,27.1-7.4,40.7c-1,48.7,5.5,96.6,21.2,142.9c0.6,1.8,0.9,3.8,0.5,5.8
		c-23.5-39.6-28.9-83.3-27.5-128.4c-1.3,0-2.5,0.1-3.8,0.1c0,19-2.2,38.3,0.6,56.8c3.3,22.1,10,43.9,17.3,65.1
		c2.9,8.4,2.5,21,17.3,23.2c4.5,0.7,7.5,11,11.4,16.8c17.7,26.3,38.1,49.4,70.6,57.9c-34.1,1.4-53-22.9-75.5-43.9
		c4,19.9,8,39.7,11.9,59.6c-1.1,0.3-2.3,0.5-3.4,0.8c-4.4-21-7.1-42.6-13.8-62.8c-6.7-20.4-19-39-25.9-59.4
		c-6.6-19.5-9.5-40.4-13.9-60.7c-1.8-8.3-3.1-16.7-4.7-25.1C0,277.7,0,252.2,0,226.7z"/>
	<path class="st0" d="M285.9,0c-0.9,16.9-2.2,18.4-18.2,16.8c-9.7-1-19.3-3.1-28.9-4.4c-9.6-1.3-19.3-2.1-31.3-3.3
		c7.6-3.6,13.5-6.4,19.4-9.2C246.5,0,266.2,0,285.9,0z"/>
	<path d="M389.4,229.7c-34-1.4-63.1-8.4-87.5-28.9c-22-18.4-30.3-43.2-20.6-66.9c4-9.8,11.6-18.7,19.4-26.1
		c10.7-10.3,22-19.5,26.6-34.5c0.8-2.7,4.8-5.7,7.7-6.2c15.9-2.9,31.6-1.7,44,9.7c27.2,25,49.4,54,60.4,89.6
		c9.1,29.4-3.9,53.8-31.1,61.1C401.4,229.4,393.8,229.2,389.4,229.7z M380.2,112.7c-32.5-7.9-58,2.1-79.3,25.4
		c-17.9,19.6-17.9,19.6-1.9,40c2.8,3.6,5,7.6,8,10.9c2,2.3,4.8,4.8,7.6,5.3c37.4,5.8,74.4,4.5,110.9-6c2.6-0.8,6.5-3.7,6.6-5.7
		c0.3-11.7,0.8-23.8-9.4-32.5C394.8,164,372.2,140.8,380.2,112.7z M293.3,129.5c15.7-7.8,29.6-17.1,44.9-21.7
		c15.5-4.7,32.4-4.9,48.3-7.1c-7.4-18.2-20.8-25-40.1-17.6C323.5,91.9,307.4,108.8,293.3,129.5z M330,206.6
		c20.6,16.6,72.2,18.6,91.8,3.1c4.7-3.7,7.7-9.5,11.1-13.9C397.7,199.4,363.9,203,330,206.6z M419.2,140.9
		c-5.4-8.8-9.1-17.7-15.2-24.1c-6.4-6.7-12.9-3.4-14.4,5.8C387.1,138.1,400.2,147.8,419.2,140.9z"/>
	<path d="M69.5,215.5c3.3-16.7,5.8-30.8,8.9-44.7c0.7-2.9,3-6,5.4-7.9c24.5-19.1,52-28.2,82.8-21.3c8.7,1.9,16.6,8.2,24.2,13.4
		c5,3.4,8,10,13.2,12.7c11.8,6,11.2,15,9.4,25.6c-3.3,18.8-11.6,35.1-24.9,48.5c-11.8,11.9-24.1,23.5-36.9,34.4
		c-17,14.3-55.4,5.2-67.6-17.6C76.7,245,73.9,228.9,69.5,215.5z M175.3,231.2c-5.8,4.2-10.9,10-17.4,12.3
		c-19.4,6.9-39.3,12.5-58.6,18.4c7.5,10.8,22.5,15.7,38.9,11.5c20.1-5,44.7-28.2,46.7-44.7c-3.6,1-6.8,1.9-10.1,2.9
		c3.9-3.4,7.8-6.7,11.8-10.1c9.3-7.9,17.1-16.8,20.1-31.8c-11.7,11.6-23.3,13.4-35.8,8.2c-14.3-6-17.6-18.2-16.2-33.6
		c-32.4,7-59,20.8-77,46.5c2.9,4.4,5.2,8.4,4.7,12c-3.8,28.6,2.2,35.8,29.1,29.3C133.3,246.9,154.1,238.3,175.3,231.2z M82.2,196
		c24.9-24.1,55.2-31.5,86.2-41.9c-22.7-11.6-43-10-62.7,1.1C91.1,163.3,80.8,174.9,82.2,196z M192.7,188c-3.6-8.4-5.9-16.3-10.3-23
		c-2-3.1-8-4.6-12.2-4.6c-1.6,0-4.6,6.1-4.7,9.4C165.1,184.8,176.7,192.8,192.7,188z"/>
	<path d="M285.9,361.1c8.1-3.2,16.2-6.5,24.3-9.7c0,0,0,0,0,0c1.4-0.4,4.7-0.5,5.4-0.2c2.9,1.3-2.6,4.4-3.3,5.4c0,0,0,0-0.1,0
		c-8.1,3.2-16.1,6.4-24.2,9.6c-0.1,0-0.1,0-0.2,0l-5.6,0.4c-0.6,0-1.1-0.6-0.8-1.2c0.4-0.8,1.4-1.5,1.7-1.9L285.9,361.1
		C285.9,361.1,285.9,361.1,285.9,361.1z"/>
	<path class="st0" d="M475.4,185.2c15.1,15.2,19.3,34.7,18.7,56.1c-7.4-18.3-14.8-36.6-22.1-54.8C473.1,186,474.3,185.6,475.4,185.2
		z"/>
	<path class="st0" d="M380.2,112.7c-8,28.1,14.6,51.4,42.4,37.5c10.1,8.7,9.7,20.7,9.4,32.5c-0.1,2-4,4.9-6.6,5.7
		c-36.5,10.5-73.5,11.7-110.9,6c-2.8-0.4-5.5-3-7.6-5.3c-3-3.3-5.2-7.3-8-10.9c-15.9-20.4-15.9-20.4,1.9-40
		C322.1,114.8,347.6,104.8,380.2,112.7z"/>
	<path class="st0" d="M293.3,129.5c14.1-20.6,30.2-37.6,53.1-46.3c19.3-7.4,32.7-0.7,40.1,17.6c-15.9,2.1-32.8,2.3-48.3,7.1
		C322.9,112.4,309.1,121.6,293.3,129.5z"/>
	<path class="st0" d="M330,206.6c34-3.6,67.8-7.2,103-10.9c-3.4,4.4-6.5,10.2-11.1,13.9C402.1,225.1,350.5,223.2,330,206.6z"/>
	<path class="st0" d="M419.2,140.9c-19.1,6.9-32.1-2.8-29.6-18.3c1.5-9.2,8-12.5,14.4-5.8C410.1,123.2,413.8,132,419.2,140.9z"/>
	<path class="st0" d="M175.3,231.2c-21.2,7.1-42,15.7-63.6,21c-26.9,6.6-32.9-0.7-29.1-29.3c0.5-3.6-1.8-7.6-4.7-12
		c17.9-25.7,44.5-39.5,77-46.5c-1.4,15.4,1.9,27.6,16.2,33.6c12.4,5.2,24,3.4,35.8-8.2c-3.1,15-10.8,23.9-20.1,31.8
		c-3.9,3.3-7.8,6.7-11.8,10.1C174.9,231.6,175.3,231.2,175.3,231.2z"/>
	<path class="st0" d="M82.2,196c-1.3-21.1,8.9-32.6,23.5-40.9c19.7-11.1,40-12.7,62.7-1.1C137.4,164.5,107,171.9,82.2,196z"/>
	<path class="st0" d="M174.9,231.6c3.2-0.9,6.5-1.8,10.1-2.9c-2,16.5-26.6,39.7-46.7,44.7c-16.4,4.1-31.4-0.7-38.9-11.5
		c19.3-5.9,39.2-11.5,58.6-18.4c6.4-2.3,11.6-8.1,17.4-12.3C175.3,231.2,174.9,231.6,174.9,231.6z"/>
	<path class="st0" d="M192.7,188c-16,4.8-27.6-3.2-27.2-18.1c0.1-3.4,3.1-9.4,4.7-9.4c4.2,0,10.2,1.5,12.2,4.6
		C186.8,171.7,189.1,179.7,192.7,188z"/>
</g>
</svg>
