<?xml version="1.0" encoding="utf-8"?>
<!-- Generator: Adobe Illustrator 19.2.1, SVG Export Plug-In . SVG Version: 6.00 Build 0)  -->
<svg version="1.1" id="Слой_1" xmlns="http://www.w3.org/2000/svg" xmlns:xlink="http://www.w3.org/1999/xlink" x="0px" y="0px"
	 viewBox="0 0 520 520" style="enable-background:new 0 0 520 520;" xml:space="preserve">
<style type="text/css">
	.st0{fill:#FFFFFF;}
</style>
<polygon class="st0" points="46.8,135.7 64.9,120.3 82.6,82.3 101.7,58.6 170.7,21.2 241.7,7.6 277.6,4 320,3 350.7,21.4 
	378.1,31.3 407.4,52.3 436.8,82.3 462.4,112.5 478.9,135.7 497.1,180.2 510,227.1 515.3,247.1 510,284.4 506.2,309 498.8,337.1 
	481.4,379.2 454.1,419.9 444.2,434.9 452.5,454.1 451.8,493.5 459.6,520 275.4,520 271.9,518.4 248,514.2 169.4,494.7 134.9,477.4 
	119.3,461.8 62.1,416.5 25.6,356.7 8.5,303.9 3.3,245.8 12.1,214.3 24,179.3 38.8,140.7 "/>
<g>
	<path d="M442.6,442.2c-4.8,5-9.1,10.5-14.4,15c-13.8,11.7-28,23-45,30.5c-16.2,7.2-31.5,16.1-48.3,22.3c-12.4,4.6-24.7,9-38.3,8.6
		c-7.5-0.2-15,0.3-22.5-0.1c-27.1-1.6-53.9-4.4-80.4-12c-26.7-7.7-50.5-20.1-73.4-34.5c-8.4-5.3-14.6-13.9-22.3-20.5
		c-14.3-12.3-29-24.1-43.6-36.2c-4.3-3.6-4.4-9.6-7.8-13.5c-8.6-9.8-14.8-21.1-20.9-32.3c-4.7-8.6-5.2-18.8-8.6-28.1
		c-2.3-6.3-5.3-12.3-8.4-18.2c-4-7.7-4.7-16-5.1-24.1c-0.5-10.7-1.9-21.3-3.2-31.9c-2-15.8,0.7-31.5,4.9-46.8
		c1.1-3.9,2.9-7.8,2.8-11.6c-0.3-10.3,5.5-18,10.5-26.1c2.5-4,3.2-9,5-13.2c6.3-14.8,6.8-31.9,20.8-43.8
		c12.1-10.3,21.8-23.2,29.2-37.1c4.3-8,8.6-15.6,14.3-22.8c8.6-10.8,20.9-15.7,32.3-22.2c21.6-12.2,45.9-18.8,67.6-30.9
		c8.1-4.5,18.3-3,27.4-5.2c19.7-4.7,39.8-8.5,60.2-7C290.5,1.4,305.4-2.5,320,3c4.4,1.6,9,3,12.8,5.4c11.3,7,23.7,11.3,36.4,14.8
		c8,2.2,14.1,6.1,20.1,12.1c13.6,13.4,27.8,26.3,43.7,37.5c7.9,5.6,13.1,14.7,19.5,22.3c8,9.5,16.4,18.7,23.6,28.7
		c7,9.7,12.1,20.6,16.4,31.8c4.8,12.6,11.6,24.8,14.3,37.8c4.4,21.3,16.3,41.1,12.7,64.3c-1.7,11.2-3.4,22.5-6,33.5
		c-3.2,13.7-4.2,27.9-9.2,41.1c-6,15.8-7.7,32.9-18,47.4c-6.4,9.1-12.9,18.5-18.4,28c-5.2,8.9-11.9,17-16.3,26.1
		c-2.2,4.5-0.5,11,0.5,16.5c3.6,21.6,7.5,43.1,9.5,64.9c0.2,1.9,2.2,4.4-1.8,4.6c-3,0.1-4.7-1.4-4.9-4.3c-1-15-4.7-29.6-6.2-44.4
		c-1-9.4-4.2-18.3-3.8-27.8C444,443.1,443.3,442.6,442.6,442.2z M46.4,381.8c0.3-0.1,0.6-0.2,0.8-0.1c0.2,0,0.5,0.3,0.5,0.4
		c0.3,4.2-3.7,9.5,3.3,12.5c0-4.3,0-8.3,0-12.2c0-1.2,0.5-3.3-1.1-3.2c-1.2,0-2.4,1.8-3.5,2.8c3.1-11.9,2.2-22-3.5-29.3
		c0,6.3-1,11.8,0.3,16.8C44.2,373.6,42.7,378.4,46.4,381.8z M283.5,321.4c0.4-3.9,6.2-4.6,5.7-9c4.2-2.1,6.5-5.1,7.3-9.9
		c1.9-11.7-3.2-22.1-6.2-32.8c-0.5-1.7-2-3.4-3.5-4.4c-11-7.7-33-4.2-41.8,6.3c-2.7,3.3-5.2,7-8.6,9.5c-7.1,5.1-10.4,11.4-9.1,19.9
		c-4-3.9,0.8-9.7-3.7-14.6c-1.6,7.7-6.8,14.4,0.8,21c3.5,7,10.4,10.5,16.5,14.4c7.6,4.9,17.5,4.7,25.7,9.3
		c4.6,2.6,18.2-2.4,20.2-6.9C288,321.5,285.7,321.1,283.5,321.4z M80.8,247.6c-6.9-1.8-12-0.8-13,7.3c-1.3,10,2.2,18.6,9.4,25.3
		c7.9,7.3,17.8,5.2,27.3,3.5c2.1-0.4,4.3-1.6,4.7-4.1c1.2-7.8,6.5-14.5,6.5-22.6c3.7,1,7.5,1.7,11.1,2.9c4.9,1.7,7.2,0.7,7.1-4.8
		c-0.2-9.3-0.1-18.6-0.1-27.9c0-2.8-0.4-6.4-2.7-7c-4.8-1.3-1.8-2.7-1-4.8c2-5.1,3.7,1.2,6-0.1c-2.8-12,4.5-27,5-31.6
		c-2.3,16.4-2.5,46.8-2.3,63.7c0.2,12,11.9,18.5,23,12.7c3.9-2.1,8.3-4.3,12.5-3.1c6.8,1.9,12.7-0.5,18.4-2.8
		c12.3-5,24.8-8,38.3-7.9c8.1,0,16.1-0.9,24.2-1.1c15.5-0.2,30.3-5.7,45.8-6.9c10.5-0.9,21.7-2.6,29-11.1
		c6.7-7.8,13.4-15.6,13.7-27.1c0.5-15.7,6.7-31,3.2-47.8c5.1,5.9,4.9,12.7,5.1,18.7c0.4,12-2,24.2-1,36.2
		c1.7,19.6-14,34.9-33.9,38.1c-6.5,1-13.9,2.7-15.2,10.4c-1.4,8.3-2.3,16.9-2.7,25c-0.6,10.6-0.3,21.2-3.5,32.4
		c2.7-2.2,3.7-2.6,5.2-0.8c1.6,1.9,1-0.7,1.6-0.5c3.9-9.7,12-14.3,21.4-18.2c6.5-2.7,13.2-5.1,20-6.9c7.1-1.8,15.6,0.2,16.9,7.3
		c1.7,9.9,6.9,20.1,2,30.6c1.2-8.7-4.1-16.3-4.3-25c-0.1-8.6-10.4-11.1-17.8-5.6c-2.4,1.8-5,3.6-7.7,5.2c-7.7,4.5-15.8,9.5-21.5,16
		c-12.4,14.3-13.9,16.2-29.3,19.5c-5.3,1.1-10.6,1-16,1c-7.7,0.1-13.6-5.7-21.2-4.2c-9,1.7-16.1-0.6-21.3-8.6
		c-2.1-3.2-5.9-8.5-10.8,0.3c-0.3-3.6-0.3-5.4-0.7-7.2c-0.7-3.2-4.5-6.8-5.7-6.1c-9.5,6.4-7.8-2.7-8.8-6.3c-0.9-3-3.3-3.5-5.2-4.6
		c-2.7-1.6-3,0.7-3.3,2.8c-0.3,2.3-2,0.7-3.1,1c-4.1,1.3-8.3,2.6-6.7,10c-7.2-8.5-14.4,2.2-20.6-3.2c4.4-0.7,3.2-5.3,5-8
		c6.7-9.9,10.5-21.2,8.6-33.2c-0.6-3.8-1-6.2,3.4-8c-5.5-0.1-10-0.9-14.6,2.1c-4.1,2.6-9.3,2.6-14.3,0.7c-5-1.9-9.7,1.5-10.1,6.7
		c-0.3,4.3-0.6,8.5,4.3,10.9c-3.6,2.4-5.4-1.5-7.9-1c-3.2,0.6-10.7,14.9-10.1,18.4c2.7,14.2,5.4,28.4,8,42.5
		c-2.8-1.6-1.7-5.4-4.3-7.6c-4.8,4-3.4,9.2-3,14c0.2,2.1,1,5.3,4,5.2c3.8-0.1,2.1-3.5,2.4-5.5c0.4-2.1,0.5-4.2,0.7-6.2
		c0.4,12.6,6,24.9,2.6,37.9c-0.7,2.8-0.7,6.4,2.8,7.8c3.6,1.4,7.6,2.2,11-0.6c2.7-2.2,6.2-4.4,6.5-8.1c1.3-12.2,11.7-21.1,12.6-33.6
		c0.2-2.4,2.7-6.9,7-7.5c1.6-0.2,4.2-0.2,4,1.7c-0.4,3.3,2.4,7.2-3.4,9.9c-4.4,2.1-3.3,8.4-2.9,13.1c0.2,2.2,1.9,1.9,3.7,1.1
		c6.4-3,13.3-4.3,21.3-6c-3.2-2.4-4.1-4.1-2.9-7.8c4.9-15.5,1.1-20.6-14.7-21.7c-1.2-0.1-2.7,0.4-3.2-1.6c-0.7-2.2,0.8-3.7,1.6-5
		c1.7-2.9,2.1,0.6,3.2,1c2.5,1,5.1,2.3,7.9,0.8c5-2.6,9.1-0.6,12.6,2.5c2.3,2,4.7,2.9,7.4,2.5c2-0.3,3.5-1,4.3-0.2
		c1.5,1.5,2.7,3.5,4.4,4.4c17.6,9.2,35,18.6,46.6,35.5c7.6,11.1,16,21.6,9.4,36.4c0.3-10.2-3.7-18.4-8.9-27.1
		c-7.4-12.5-17.6-21.4-30.3-26.5c-10.6-4.2-22.7-2.7-34.3,0.5c-4.8,1.3-2.6,2.6-1.8,4.2c2.7,5.6,7.5,2.4,11.5,2.1
		c8.9-0.7,18.7-3.5,24.8,5.1c3.2,4.7,6.8,8.9,10.6,13.1c5.7,6.3,9.8,13.4,9.3,22.2c-0.3,4.4,1.5,8.2,2.9,12.3
		c2.7,7.9,7.8,15.9,3.4,25.8c-3.4-9.1-6.4-17.2-9.5-25.3c-3.8-10.2-1.4-22.6-11.6-30.6c-5.5-4.3-7-11.8-13.6-15.3
		c-11.8-6.1-23.5-0.7-35.3-0.3c-7.8,0.2-12.7,7.9-20.3,8.1c-6.2,0.2-9.2,3.3-10.7,8.3c-2,7.1-3.2,14.1,0.7,21.4
		c3.1,5.8-4.3,8.1-7.1,11.4c-2.1,2.5-5.2-3-5.4-4.6c-0.7-5.8-6-8.1-9.4-8.8c-10.3-2.4-12.5-8.8-12.6-17.6c-0.1-7.5-6-7.9-11.6-8.3
		c-6.5-0.5-5.6,4.7-6.4,8.2c-0.6,2.6,0.9,5.2,1.4,7.7c1.8,9.1,10.4,14.5,12.6,22.9c1.5,5.8,4,10.7,7.9,14.6
		c12.9,12.8,17.4,28,15.1,45.5c-0.8-3.5-0.7-7.1-0.9-10.7c-0.1-2.6-0.9-4.8-2-7.3c-4-9.2-12.4-15.1-17.5-23.2
		c-7.4-11.9-14.2-24.1-19.7-37.1c-7.1-16.8-1-26.7,16.8-25.2c1.6,0.1,3.2,1.4,4.2-0.8c0.6-1.6,0.1-3-0.8-4.5
		c-2.3-3.5-5.6-6.4-6-11.2c-0.2-2.8-12.1-4.5-12.2-2.2c-0.6,7.5-6.8,12.1-9,18.6c-4.7,6.2-3.4,12.9-1.7,19.6
		c2.6-6.5,1.8-13.2,1.4-19.8c3.8,7.1,2.4,14.6,1.1,21.8c-1,5.5-0.1,10.5-1.1,17.6c2.9-3.6,0.8-6.1,4-8.4c-1.4,6-0.9,11.5,1.8,15.6
		c1.7,2.5,3.1,4.6,2.7,7.4c-0.7,5.7,1.2,10.8,4.7,15c7.4,8.7,14.5,17.9,20.6,27.3c7,10.8,15.4,18,28.1,20.7c0.8-6.2-4.9-4.3-6-4.7
		c16.8-18,8.7-39.2,9.6-58.3c5.5,7.3,3.6,18.2,9,26.8c1.8,2.8,1.6,6.7,2.4,10.1c0.3,1.1,1.6,3.3-0.9,2.4c-4.5-1.6-3.1,1.4-2.9,3.1
		c0.7,6.5-1.2,12.4-4.3,18.4c-0.8-1.4-1.2-3.2-2.1-3.5c-1.9-0.6-1.7,1.2-2,2.5c-1.2,5.9,3.4,8.3,7.5,8.8c8.7,1.1,16.1,5.9,23.9,8.8
		c25.3,9.3,51.5,9.9,77.6,12.5c11,1.1,22.1-1,33.1-1.2c10-0.1,19.3-3.3,27.6-6.7c22.3-9.4,44.1-19.7,65-32.4
		c17-10.3,31.2-23.1,43.4-37.8c14.7-17.7,23.4-39.4,37.4-57.6c11.8-15.5,13.3-34.8,21.8-51.6c6.1-12.1,2.5-26.4,8-39.4
		c5-12,2.9-25.9,2.1-39c-0.6-9.3-1.1-18.9-3.8-27.7c-5.1-16.2-9.6-32.6-15.2-48.6c-6.5-18.5-15.1-35.6-26.5-51.6
		c-7.9-11.1-18.4-20-26.6-31c-3.8-5.1-7.4-11.2-13.6-14.7c-11.9-6.7-21.2-16.5-31.1-25.7c-8.7-8.1-17.9-15.6-30.4-18.6
		c-7.3-1.7-14.3-5.1-20.9-8.7C323.4,10.2,304.4,5,285.2,9c-17.2,3.6-34.4,2.5-51.6,4.8c-18.1,2.4-36.4,4.5-52.9,11.3
		c-27.4,11.3-57.2,18.9-78,42.2c-9.1,10.2-21.5,18.2-21.4,33.9c2.5,1.6,3.4-3.2,6.6-1.2c-1.7,3.2-2.6,6.5-2.1,10.1
		c0.2,1.1-0.1,3.6,1.7,2.3c5.5-3.7,3.2,1.6,3,2.6c-0.9,7.8,4.4,6.4,7.9,4.4c3.7-2.1,7.3-3,11-1.8c6.6,2.1,13,4.8,19.5,7.3
		c-13.8-2.1-27.6-7.5-41.6,3.4c1.9-4.4,2.5-8.1,1.1-12.4c-2.4,3.7-4.5,6.7-7.1-0.2c-0.1,6.9-6.1,10.2-6.5,16.1
		c-0.4,5.5-6.9,6.6-9.6,10.6c-0.2,0.3-1.8-0.3-2.2,0.1c-3.6,3.1-10.1,0.4-12.2,7c-4.8,15.3-14.6,29-15.8,45.5
		c-0.2,2.5-1.5,4.5-3.4,5c-7.5,1.7-8.5,2.2-8.2,9.4c0.3,6-0.9,11.5-2.3,18.7c-1.3-5.3,0.4-9.7-3.3-13.3c1.4,9.7-2.6,20.2,6.8,27.6
		c-1.6-5.6-1.5-11.2,1.3-16.5c0.9,3.2,1,6.4,0.9,9.6c-0.3,6.4,1.1,13-6.7,17.4c-2.5,1.4-7.5,8.6-0.7,11.8c4.4,2,3.6,4.5,3.9,7.4
		c0.3,3.6,0.6,7.3,0.9,11.4c7-2.2,13.3-5.2,22.5-1.1c-10.3,0.4-10.9,5.5-10.3,11.7c0.3,3.2,0.5,6.5,0,9.7c-0.8,5.1,1.7,8,6,10.1
		c3.7,1.8,8.6,2.5,11,5.2c10,12,22.4,22.4,28.6,37.1c0.8,2,0.6,5.5,4.4,4.2c2.5-0.8,6.2-1.7,5.9-4.8c-0.6-6.5,5.2-9.7,7.4-14.7
		c4.3-9.8,2.3-26.9-6.2-35.4c-2.7,3.2,0.5,7.7-2,10.7c-3.4-0.1-1.5-5.1-3.9-3.8c-4.4,2.2-9.1,1.2-11.2-3c-1-1.9,0.4-5.1-3.3-5.9
		c-0.5,2.5-0.9,4.9-1.4,7.4c-3.8-1.4-0.7-5.6-5.2-6.8c-11-3-15.6-10.2-15.4-21.4c0.1-3.9,1.3-8.1-2-11.6c-4.3-4.5-5-10-4.5-15.8
		c0.2-2.6,0.5-5.3-1.8-7.4c-4,2.9,0.4,7.4-2.6,10.6c-8.7-10.5-1.8-23.9-7.9-34.5c-0.1-0.1,0.3-0.4,0.4-0.7
		c1.8-7.6,4.2-14.9,11.5-19.4c1.7-1,2-5.8,5.3-2.4c2.9,2.9-1.9,2.8-2.6,4.4c-3.1,6.4-9.1,11.3-5.5,20.1
		c5.7,14.2,13.1,19.8,28.8,19.4C73.8,244.8,77.8,244.2,80.8,247.6z M63.5,264c1.6,16.9,7.5,25.7,17.9,28.5c8.2,2.2,15.9,0.6,20.3-5
		C80.9,291.4,68.5,283.2,63.5,264z M28.3,348.1c-2.6-17.1-0.2-34.4-4.8-51.4c0,10.2,0,20.5,0,30.7c-0.4,0-0.7,0-1.1,0
		c-0.2-2.9-0.3-5.8-0.5-8.7c-0.7,5.2-4.3,12.9,0.1,14.9c5.5,2.5,3.3,5.7,4.2,8.6C26.8,344.1,25.6,346.5,28.3,348.1z M64.9,410.7
		c-5.1-11.7,1.7-22.5-1.8-35.5c-0.4,6.7-0.6,11.3-0.9,16.3c-3.4-4.3-1.3-9.9-5.7-14.2C56.1,389.4,49.6,401.6,64.9,410.7z
		 M38.5,363.5c0.2-14.7,1-29.4-6.5-42.8C32.5,335.3,32.9,349.8,38.5,363.5z M295.6,272.3c3-5.4-0.3-8.4-3.6-11
		c-7.9-6.3-8.2-6.3-16.9-2.2C284.9,259.4,291.2,264.1,295.6,272.3z M69.6,393.1c-1.8,20-1.4,22.8,4.7,26.8
		C71.8,411,73.6,402.2,69.6,393.1z M85.3,398.8c-3.9,10.7-3.4,21.5,1.3,31.9C86,420.2,84.1,409.7,85.3,398.8z M10.2,238.6
		c-4.4,7.3-4,15-2.1,22.6c0.7,0,1.4,0,2.1,0C10.2,253.6,10.2,246.1,10.2,238.6z M201,290.3c0,4.8-0.1,9.6,0.1,14.3
		c0.1,1.5-1.2,4.5,1.8,4.4c2.5-0.1,2.9-2.6,3.1-4.9C206.4,298.8,201.5,295.3,201,290.3z M17.1,290.5c-2.1,4.7-4.9,9.3-2.2,14.4
		c1,1.8,0,6.2,3.8,4c6-3.5-4.1,0.8-2.1-3.5C18.7,301.3,17.1,295.6,17.1,290.5z M75,405.6c-0.3-7.9,3.2-16.1-1.7-24.3
		C70.8,390.1,74.8,397.7,75,405.6z M84.2,104c-5.2,5.4-8,10.8-9,17C77.8,115.5,83.9,111.9,84.2,104z"/>
	<path d="M234.4,459.9c-0.2,1.8-0.5,3.8-0.7,5.9c-2.1-0.8-12.8-31.3-11.3-35c3,14.3,17.5,18.3,26.2,27.4c4.2,4.4,10,10.9,18,12.8
		c3.9,0.9,5.3,0.3,6.6-3.1c0.6,3.1,1.7,7-0.9,8.6c-2.9,1.7-6.5,0.5-10.1-1.3c-3.7-2-8.3-2.5-10.9-6.3c-0.2-0.2-0.4-0.4-0.6-0.6
		c-3.4-4.5-7.3,6.8-9.5,0.2C239.9,464.5,239.3,461,234.4,459.9z"/>
	<path d="M297.8,406c-0.9,2.5-3.1,3.6-5.5,4.4c-1.6,0.5-2.6,0.1-3.3-1.4c-0.4-0.9-1.6-2.1-0.4-2.8c7.3-4.4,5.4-14.5,13-19
		c7.4-4.3,15.7-6.3,23-10c8.6-4.4,16.8-5.5,26.1-5.1c-10.8,2-19.3,7.5-26.8,14.9c-3.4,3.3-7.5,5.9-12.8,6.8
		c-4.9,0.9-8.3,4.9-10.5,9.4C299.6,404.2,298.7,405.1,297.8,406z"/>
	<path d="M144.2,74.8c8.6-0.5,17.1-2.2,25.4,0.8c10.7,3.8,21.2-0.6,31.8-0.7c3.9,0,8.1-0.9,12.2-1c11.5-0.2,23.1,0.8,34.3-3.1
		c1.8-0.6,4.3-0.8,6.5,0.9c-9.2,7.8-20.7,7.4-31.4,8.4c-14.8,1.3-29.8-1.2-44.6,1.7c-2.4,0.5-5.8,0.8-7.3-0.4
		C163.3,74.5,153.7,75.3,144.2,74.8z"/>
	<path d="M384.2,233.6c-9.5-7.5-17.4-16.2-22.9-27c-3.3-6.4-2.3-11.4,1.4-17.1c4.1-6.2,10.5-10.2,14.8-16.5c1.1,2.8,2.4,4.7-0.5,7.8
		c-12.7,13.8-13.7,29.2-0.5,40.7C380.2,224.6,382.7,228.8,384.2,233.6z"/>
	<path d="M254.7,102.5c-26.1,1.5-51.1,5.7-74.2,17.8C193.4,106.1,230.6,97.6,254.7,102.5z"/>
	<path d="M297.8,406c0.9-0.9,1.8-1.7,2.8-2.6c3.7-0.9,6.5-3.2,9.6-5.3c1.2,7.6-4.9,16.2-12,17.1l0.1,0c1.8-0.1,2.4-2.3,1.7-2.3
		C293.4,412,296.8,408.7,297.8,406z"/>
	<path d="M189.6,379.2c6.7,0.2,13,0.9,17.4,6.6c1.6,2,3.6,4.7,1.5,6.3c-2,1.6-5.8,0.2-6.9-2C199,384.8,193.6,383.1,189.6,379.2z"/>
	<path d="M91.4,142.4c-1.6-3.7-4.8-2.2-6.7-5.6c7.6-0.9,11.5,3.6,17.7,8.8c-7.8-1.5-13.3-1.7-18.8-1.3c-6.4,0.4-8.7-2.4-5.3-8.6
		c2,1.8-0.9,6.3,3.4,6.6C84.6,142.6,87.6,142.4,91.4,142.4z"/>
	<path d="M298.2,415.2c2.6,2.9-3.2,5.2-0.6,8.1c2.8-0.1,2.1-4.3,5.7-4.6c-1.1,6-5.8,10.3-5.8,16.2
		C298,428.3,286.3,421.3,298.2,415.2C298.2,415.2,298.2,415.2,298.2,415.2z"/>
	<path d="M115.8,257.3c-10.3-8.4-23.6-6.4-35.3-9.9c10.7-1.1,20.9,1.3,30.8,4.5C113.6,252.6,115.3,254.7,115.8,257.3z"/>
	<path d="M147.5,170.5c-1.9,4.7-6.7,22.3-8.9,27.6C134.8,190.9,142.1,173.9,147.5,170.5z"/>
	<path d="M264,300.9c6.3,1.5,9.9-3,10.8-7.1c1-4.2,3.1-10.2-3.1-13.7c-1.3-0.7-1.9-2.4-2.9-3.7c9.7,6.1,11.6,17.1,4.2,23.9
		C270.2,303.1,267.3,304,264,300.9z"/>
	<path d="M288.9,312.1c-2.1-0.7-3.2,1.3-4.9,1.8c3.4-8.2,6.7-16.3,10.1-24.5C293.6,297.3,289.1,304.2,288.9,312.1z"/>
	<path d="M269.1,276.6c-16,4.3-13.6,1.5-13.5,17.7c-2.3-5.4-3.5-11,0.4-16C259.6,273.9,264.4,274.3,269.1,276.6z"/>
	<path d="M267.1,289.8c-0.2,2,0.6,4.7-3,4.6c-3.9-0.2-3.6-3.7-4.2-6.1c-0.7-2.7,1.3-4.1,3.8-3.9
		C266.9,284.7,267.5,287.1,267.1,289.8z"/>
	<path d="M93,256.5c-5.6,0.7-7.2,5.5-6.6,9.1c0.6,3.8,0.7,9.3,6.9,10.3c1.3,0.2,2.4,1.4,3.6,2.2c-10-2.1-15-10.5-11.2-18.4
		C87.2,256.5,89.3,254.9,93,256.5z"/>
	<path d="M97.2,277.4c7-8.4,3-7.7,3.9-18.5c1.7,4.9,2.4,5.4,1.9,11.2C102.5,275,101.3,276.4,97.2,277.4z"/>
	<path d="M91.6,267.6c-0.5-1.7-2-3.7,1-4.7c3.3-1,4.2,1.9,5.4,3.7c1.5,2,0.2,3.7-1.9,4.3C93.4,271.8,92.1,270,91.6,267.6z"/>
</g>
</svg>
