<?xml version="1.0" encoding="utf-8"?>
<!-- Generator: Adobe Illustrator 19.2.1, SVG Export Plug-In . SVG Version: 6.00 Build 0)  -->
<svg version="1.1" id="Слой_1" xmlns="http://www.w3.org/2000/svg" xmlns:xlink="http://www.w3.org/1999/xlink" x="0px" y="0px"
	 viewBox="0 0 520 520" style="enable-background:new 0 0 520 520;" xml:space="preserve">
<style type="text/css">
	.st0{fill:#010101;}
	.st1{fill:#090909;}
	.st2{fill:#FEFEFE;}
	.st3{fill:#080808;}
	.st4{fill:#101010;}
	.st5{fill:#1C1C1C;}
	.st6{fill:#181818;}
	.st7{fill:#262626;}
	.st8{fill:#FCFCFC;}
	.st9{fill:#F2F2F2;}
	.st10{fill:#FFFFFF;}
	.st11{fill:#131313;}
	.st12{fill:#030303;}
	.st13{fill:#040404;}
</style>
<g>
	<path class="st0" d="M479.9,243.6c-1.7,18.2-3,36.4-10.3,53.5c-3.2,0.8-5-0.7-5.8-3.8c3.3-14.7,6.3-29.5,8.7-44.4
		c2-14.3,2.1-28.5-0.2-42.7c-3.7-21.1-6.7-42.4-15.5-62.2c-7.6-17.2-18.5-31.1-36.4-38.5c-15.5-6.4-31,4.6-30.2,21.2
		c0.2,5,3.4,7.2,7,9.4c8.6,5.4,12.3,13.4,14.3,23.3c5.1,24.6,10.2,49.1,10.6,74.5c0.2,10.8-1.2,21.4-1.4,32.1
		c-0.1,4.8-2.5,8.8-6.6,11.3c-20.6,12.6-25.4,33.7-27.1,55.1c-2.3,27.5,0.8,55.1-2.5,82.7c-4,34.3-11.6,67.4-25.7,98.9
		c-1.2,2.5-3.5,4-5.3,5.9c-2.5,0-4.9,0-7.4,0c-1.3-1.6-2.2-3.3-2.4-5.4c-0.1-3.4,1-6.5,2.3-9.5c25.3-57.9,29.8-119.2,25.5-180.8
		c-2.2-30.8-3.5-62.6-17-91.9c-4.5-9.7-5.1-20.7-7.1-31.3c-4-21.2-10.3-41.5-25.9-57.7c-5.6-5.8-7.6-13.6-10.3-20.9
		c-4.3-11.5-7.4-23.4-13.6-34.4c-14.4-25.2-41.1-33.4-63.4-47.4C223,33.8,211,28.1,197.5,27c4.2,0.5,8.9,0.7,8.9,6.6
		c0,4.8-3.9,5.8-7.7,6.4c-4.5,0.7-9.2,0.6-13.4-1.1c-9.1-3.5-18.6-2.6-28-3.6c-25.6-2.7-43.3,10.2-58.2,28.6
		C82.6,84.5,71.4,109,55,129.5c-24.2,30.1-30.1,65.1-33.9,101.4c-0.8,7.8-2.6,15.5-3.8,23.2c-5,33.7-4.3,67.1,4.6,100.2
		c5.9,21.9,11,44.1,13.5,66.6c2.1,18.7,8.1,34.9,21,49c10.6,11.5,20.2,23.9,34.3,31.6c3.9,2.1,8.8,5.2,5.7,10.5
		c-2.8,4.8-8.1,3.3-12.2,1.4c-14.6-6.9-24.6-19.1-35.2-30.6c-2.5-2.7-4-6.1-7.5-8.9c0.6,10.4,3.9,19.6,6.8,28.9
		c1.4,4.5,4.4,9.5-1.9,13.1c-6.5-0.7-8.4-6.1-10.5-10.9c-4.8-11.1-7.6-22.6-7.3-34.8c0.3-10-0.9-19.9-6.1-28.6
		C6.8,414.7,1.8,385.4,1.3,355c0-2,0.3-4.1-1.3-5.8c0-49.5,0-99,0-148.6c8.2-2.5,7.6,4.2,7.9,8.4c0.8,13.6,0.5,27.1-1.1,40.7
		c-0.4,3.1-1.6,6.2-0.3,8.3c-0.1-10.7,1.9-21.9,3.4-33.3c1.4-10.5,4.7-21-0.3-31.5c-1.3-2.7,0.2-5.6,1.3-8.3
		c4.4-11.2,6.8-22.8,8.3-34.7c0.6-5,0-11.7,9-9.2c4.9,1.4,5.9-3.7,7.7-6.5C49,114.6,61.3,94.1,74.5,74.1
		c15.7-23.8,35.3-41.7,61.7-54.7C157,9.2,178.5,5,200.2,0c13.2,0,26.4,0,39.5,0c23.5,7.6,39.6,24.1,52.4,44.4
		c0.9,4.3,2.4,8.2,7.1,9.7c12.2,16.8,24,33.8,32.4,52.8c1.7,3.7,4.2,7.7,4,11.5c-1.1,27.5,14.2,49.2,25.3,72.2
		c10.7,22.3,18.1,44.6,17.1,69.7c-0.6,15,1.5,30.1,2.5,47.5c6.2-7.6,7-15.1,10-21.5c3.5-7.6,7.3-15.1,16.7-16.4
		c5.1-0.7,5.4-3.8,5.6-7.8c1.9-30.2-0.6-60-8.6-89.3c-1.5-5.3-5.1-8-9.2-11c-17-12.2-18.1-49.6-1.9-63.1c8.9-7.4,19-6.7,29.1-3
		c19.8,7.2,31.8,22.4,40,40.8c11.1,24.7,15.8,51.1,17.5,78C481.3,224.2,481.3,233.9,479.9,243.6z"/>
	<path class="st1" d="M519.1,492.8c-33.1,27.9-64.9,6.1-97.8-3.1c-0.9,8.7,8.2,14.4,6.2,22.7c-3.1,2.7-5.2,0.7-7.2-1.5
		c-2.2-2.5-3.8-5.4-5-8.5c-2.7-6.7-8.3-14.3-3-20.8c5.5-6.8,13-0.5,19.3,1.3c11.8,3.4,23.3,7.8,35.1,11.5c10,3.2,20.1,3.6,30.2-0.2
		c7.9-3,13.4-7.9,13-17.2c0.6-2.7,1.8-4.9,4.3-6.3c1.7,2.4,3.3,4.8,5,7.2C519.1,482.9,519.1,487.8,519.1,492.8z"/>
	<path class="st2" d="M427.5,517.8c-19.9-0.1-39.8-0.1-59.7-0.3c-4.2-0.1-9.1,1.8-12.3-2.9c25.8-58.4,30.4-120.1,28.7-182.7
		c-0.5-18.4,9-32.9,15.3-48.7c0.9-2.3,4-5.3,6.2-5.4c13.3-0.7,12.8-10.3,13.3-19.4c1.3-29.4-0.8-58.4-8.6-86.9
		c-1.1-3.9-1.8-7.8-1.8-12c0-8.2-4.7-14.6-11.1-19.8c-3.3-2.7-9.9-0.8-10.5-6.9c-0.6-7,0.3-14,3.5-20.5
		c5.7-11.8,14.9-15.8,27.5-11.6c20.5,6.9,33.1,22.1,41.5,41.2c8.9,20.2,12.5,41.9,15.7,63.6c0.9,14.8,1.1,29.7-0.1,44.5
		c-2.7,15-3.6,30.4-10.1,44.6c-0.6,10.1-0.7,10.4-8.4,17c2.3,0.7,4.4-0.5,6.7-0.3c4.4-0.4,8.7,0.6,13.1,0.8
		c6.4,1.3,11.5,5.1,16.6,8.8c19.3,23.3,16.3,48.6-6.9,61.5c-5.9,3.3-11.7,2.8-17.8,2.8c-3.8,0-8.3,1-8.1,5.6
		c0.3,5.3,5.2,4.2,8.7,3.8c14.5-1.5,25.3,4.4,33.5,15.9c-1.1,6.4-6.2,4.7-9.9,5.3c4.9,2,10.6-4.8,15.6,0.8c1.5,3.6,1.1,7.2,0.4,10.9
		c-6.7,11.3-16.8,14.7-29.2,12.7c-6.8-1.1-13.7-1.7-23.4-1.2c13.9,6,29-0.3,38.3,11.4c0.8,1.7,1.7,3.4,2.5,5.1
		c6.3,5.6,13.9,10.2,15,19.8c4.6,9.6,0.5,15.3-8.1,19.7c-11.2,5.7-22.8,6.9-34.7,3.3c-18.7-5.7-37.2-11.9-57.7-18.6
		c4.1,12.9,4.8,25.2,16.2,32.5C427.5,514.2,427.5,516,427.5,517.8z"/>
	<path class="st3" d="M506.4,427.5c0.1-3.8,0.2-7.5,0.3-11.3c-1.7-1.6-4-2.7-4.8-5.2c-10.9-8.7-21.8-17.4-37.4-12.8
		c-4.5,1.3-9.3,0.9-10-5.5c-0.9-7.1,3.4-9.3,9.4-10.1c6.4-0.9,12.8,1.6,19.2-1.6c18.8-9.5,25.5-28.8,15.7-47.6
		c-2.1-3.9-4.9-7.5-7.3-11.2c0.4-1.7,1.5-2.7,3.1-3.2c11.7,10.4,15.2,24,13.4,38.8c-1.4,11.8-2,11.7-26.1,32.5
		c13.1,10.9,38.4,13.8,27.5,40.7C506.7,431.3,505.3,430.5,506.4,427.5z"/>
	<path class="st3" d="M506.4,427.5c1,1.2,2,2.3,3,3.5c-2,5.8-6.1,10.1-11.8,11.1c-7.1,1.2-2.9,5.4-3.3,8.5
		c-9.9-3.7-20.1-5.6-30.7-5.1c-3.1,0.1-6.4-1.4-9.3-2.8c-2.6-1.2-4.9-3.3-3-6.8c1.5-2.8,3.7-2.8,6.2-1.6c8.1,3.8,17,2,25.4,3.4
		C492.3,439,500.3,435.1,506.4,427.5z"/>
	<path class="st4" d="M494.5,318.9c-1,1.1-2.1,2.1-3.1,3.2c-4.8-2.7-9.6-5.3-14.4-8c-4.9-1.6-9.8-1.3-14.7-0.2
		c-4.4,1.5-9.4,3.7-5.3-4.5c2.5-5,5.4-9.9,8.1-14.8c1.5,0.8,3,1.6,4.5,2.5c-1.2,2.9-2.5,5.8-4.1,9.5
		C476.5,307.6,486.4,311.3,494.5,318.9z"/>
	<path class="st5" d="M425.5,24.4c5.4,9.5,0.8,17.6-0.5,26c-0.1,0.8-2.5,1.2-3.9,1.8c-0.4-1.5-1.5-3.1-1.2-4.4
		C421.6,40,423.6,32.2,425.5,24.4z"/>
	<path class="st6" d="M370.7,85.4c-7.3-9.1-8-17.6-12-24.5c-0.9-1.6-0.4-3.4,1.4-3.8c1.6-0.4,2.7,0.3,3.5,2.3
		C366.9,66.7,371.4,73.7,370.7,85.4z"/>
	<path class="st7" d="M490.7,95.5c2.4-10.2,6.7-14.8,16.2-16.8C503.6,86.9,499.4,91.6,490.7,95.5z"/>
	<path d="M511.8,475.4c-3.6-4.8-5.4-14.6-15.2-21.8c-4.1-3-6.4-5.5-9.4-7.4c3.7-0.2,12.6,3.4,16.6,6.8c4.7,4,7.5,13.8,10.3,17.6
		C513.9,472.6,513.7,474.4,511.8,475.4z"/>
	<path d="M299.2,54.1c-0.3,1.5-1.4,4.2-1.9,3.4c-2.9-3.8-10-6.3-5.2-13.1C295.6,46.8,299.5,48.9,299.2,54.1z"/>
	<path class="st4" d="M479.9,243.6c0-9.7,0-19.4,0-29.1C481.6,224.2,481.6,233.9,479.9,243.6z"/>
	<path class="st2" d="M47,517.7c0-0.9,0-1.7,0-2.6c3.7-3.7,0.5-6.9-1-10c-6-12.5-8-25.8-8.8-42c8,9.7,14.6,17.8,21.4,25.7
		c8.1,9.5,17.7,17.1,28.9,22.7c2.6,1.3,5.8,3.2,7.7,0.1c2-3.2-0.9-5.1-3.7-6.3c-23.1-10.1-35-31.8-50.4-49.7c-4.3-5-5.3-12-6.2-18.5
		c-4.6-33.5-10.9-66.6-21.1-98.9c-1.1-3.5-1.2-7.3-1.6-10.9c-3.7-39.6,1.9-78.4,8.5-117.2c0.9-5.3,1.3-10.6,2-15.9
		c2.5-18.1,7.4-34.5,19-49.8c15.1-19.9,26.9-42.3,40.7-63.3c5.8-8.9,12.3-17.6,19.5-25.4c22-24.2,52.1-31.1,82.8-20.3
		c4.9,1.8,10.4,2.1,15.7,2.9c2.6,0.4,5.2-0.1,5.5-3.3c0.2-2.9-1.8-4.5-4.5-4.7c-5.3-0.3-10.5-0.7-17-4.8c13.6-2.1,24.9-1.7,35.4,4
		c20.2,11,40.4,22,59.9,34.1c13.2,8.2,21.3,21.3,27,35.6c3.8,9.5,6.5,19.5,9.9,29.2c1.5,4.2,2.9,9.1,5.9,12
		c18.7,18.2,24.8,41.5,28.6,66.1c2.5,16.3,8,31.9,13.5,47.3c2.4,6.6,4.2,13.3,4.7,20.3c2.6,35.1,8.7,69.9,6.4,105.5
		c-3,46.8-11,92.2-30.2,135.2c-3.9,4.4-9.2,2.6-13.9,2.6c-53.6,0.3-107.3,0.4-161,0.5"/>
	<path class="st8" d="M187.9,12.6c16.2-6,32.9-7.8,49.7-4.1c25.3,5.5,40.4,21.8,46,48.2c-27.9-12.6-50.1-35.3-81-39.9
		C198.2,13.8,191.2,19.9,187.9,12.6z"/>
	<path class="st9" d="M11.1,350.8c6.5,20,10.4,46.6,14,67.2c1.2,2.7,0.4,4.8-2.5,2.7c-7.4-18-11.4-36.8-13.2-56.1
		C9.4,361.7,8.3,350.8,11.1,350.8z"/>
	<path class="st10" d="M368.3,242.6c-4.8-11.1-7.9-22.5-10-37.5c10.4,10.8,9.3,22.5,12.8,32.4C372,240.2,373,243,368.3,242.6z"/>
	<path class="st4" d="M475.1,250.1c0-14.8,0-29.7,0.1-44.5C478.6,220.4,478.7,235.2,475.1,250.1z"/>
	<path class="st10" d="M328.6,129.5c-5.5-6.5-5.3-15.2-10.5-23.8c9.5,5.1,10.2,8.8,11.3,14.8C330,123.7,328.6,125.4,328.6,129.5z"/>
	<path class="st10" d="M187.9,12.6c4,4.7,10.7-0.5,14.8,4.1c-8.8,1-17.9-0.7-26.9,2.2C178.3,13.7,183.4,13.6,187.9,12.6z"/>
	<path class="st10" d="M364.3,228.7c3-0.6,5.8,10.5,6.7,8.8c2.1,4,2.6,8.2,1.7,13.2C368.8,249.1,363.9,232.3,364.3,228.7z"/>
	<path class="st10" d="M327.2,127.7c0.2-3-0.8-9.6-0.6-12.5c2.7,3.1,4.6,15.3,6.2,18.4C334.2,136,327.4,129.1,327.2,127.7z"/>
	<path d="M484.6,482.9c1.2-0.9,3.3-1.7,3.5-2.8c0.6-3.3-6.1-6.8-0.2-10c2.4-1.3,5.4,0.2,7.9,2c5,3.5,0.7,7.3,0.7,10.9
		C492.5,486.3,488.5,486.3,484.6,482.9z"/>
	<path d="M501.9,411c2.4,0.9,4.1,2.6,4.8,5.2c-4.8-2.3-8,3-12.6,2.5c-4.9-0.5-10.5,0.7-11.8-7.3C489.2,410.4,495.8,416.3,501.9,411z
		"/>
	<path d="M494.6,427.2c-1,4.7-4.6,5-7.7,5.3c-3.5,0.3-6.6-1.1-7.2-5.1c-0.6-4.4,2.8-4.4,5.6-4.3C489.1,423,492.6,423.8,494.6,427.2z
		"/>
	<path d="M484.6,482.9c4,0,8,0.1,11.9,0.1c3.1,6.6-0.8,7.4-6,7.4C485.5,490.3,481.1,489.8,484.6,482.9z"/>
	<path d="M474.8,344.8c8.6-6.5,13.9-4,19.1-2.4c0.2,0.1,0.2,3.5-0.7,4.1C487.3,351,483.1,345.3,474.8,344.8z"/>
	<path d="M491.8,353.5c-0.5,2.8-2.4,4.8-5.5,5.4c-1.7,0.3-3.3-0.5-3.3-2.6c0-3.5,2.2-4.9,5.5-5.3
		C490.3,350.8,491.7,350.9,491.8,353.5z"/>
	<path class="st11" d="M462.3,314c4.9-3,9.9-3.2,14.7,0.2C472.1,314.1,467.2,314,462.3,314z"/>
	<path class="st12" d="M168.5,189.6c0.2,31.9-21.4,61.1-49.6,68.6c-15.7,4.2-29.5,0.3-41.2-10c-39.5-34.7-25.7-108.6,23.5-127
		c9.8-3.7,20.4-4.8,27.9,2.7c13.3,13.2,27.8,25.7,35.1,43.8C167.1,175,168.8,182.6,168.5,189.6z"/>
	<path class="st12" d="M312.1,201.8c0.1,19.4-16.9,43.1-40.4,50.2c-23.9,7.2-48.2-1.3-61.9-21.5c-6.9-10.2-9.1-20.9-4.8-32.8
		c7.6-20.6,16.6-40.3,32.9-55.7c7.3-6.9,15.4-12.3,25.6-13.8c16-2.4,26.2,2.7,31.6,17.9C301.1,162.6,312.2,177.3,312.1,201.8z"/>
	<path class="st12" d="M307.4,307.6c-4.5,25.4-7.7,51-13.8,75.9c-13.7,55.9-57.3,89.5-110.3,86.5C165,469,148,463,132,454.2
		c-4.1-2.3-7.1-5.4-9-9.7c-1-2.2-2.9-5.6-4.2-5.6c-5.9,0.3-10.6-0.5-6.9-7.5c3-5.6,8.8-8.8,15.6-7.3c3.7,0.8,6.4,4.5,3.2,7.1
		c-10.9,8.7-1.1,12.9,3.9,16c53,33.5,121.9,11.8,146.6-46c11.1-26.1,13.7-54.1,17.5-81.7c1-7.1,5.3-14.6-1.4-22.1
		c-2.3-2.6,1.9-6.3,5.6-4.2c3.8,2.1,7.3,5.4,10.1,8.8c2.7,3.3,7.2,8.3,3,11.7C311.5,317.2,312.1,307.5,307.4,307.6z"/>
	<path class="st2" d="M59.2,191.3c3.4-25,14.9-47.6,39.8-61.7c8.2-4.6,18.3-7.2,25.5-0.2c16,15.5,33.5,30.1,37.8,54.4
		c5.3,29.7-23.1,67.1-53.1,68.7c-18.4,1-29.7-9.8-38.7-23.9C63.7,218.1,59.6,206.6,59.2,191.3z"/>
	<path class="st2" d="M284.7,140.3c-2.9,3.5-9.5,1.6-8.4,6.9c0.9,4.4,5.5,2,8.5,1.9c1.8,0,2.9,0.6,4.2,1.9
		c19.2,19.3,21.6,55.9,5,77.4c-13.9,17.9-40.2,24.6-59.9,14.1c-17.7-9.4-32.2-24.5-20.3-50.4c7.8-17,15.9-33.4,30.1-46
		C257.4,134,269.3,132.2,284.7,140.3z"/>
	<path class="st13" d="M103.7,191.4c0.9-14,7.7-21.5,17.5-21c10.4,0.5,11.1,8.2,10.9,15.7c-0.2,11.1-7.8,19.7-16.6,18.9
		C106.5,204.2,102.7,198.7,103.7,191.4z"/>
	<path class="st13" d="M266.6,190c1.1,12.6-8,13.5-17.5,13.7c-6.1,0.2-13.7-11.5-13.7-21c0-7,9.8-17.6,16.3-17.5
		C258.6,165.2,266.5,178.1,266.6,190z"/>
</g>
</svg>
