<?xml version="1.0" encoding="utf-8"?>
<!-- Generator: Adobe Illustrator 19.2.1, SVG Export Plug-In . SVG Version: 6.00 Build 0)  -->
<svg version="1.1" id="Слой_2" xmlns="http://www.w3.org/2000/svg" xmlns:xlink="http://www.w3.org/1999/xlink" x="0px" y="0px"
	 viewBox="0 0 500 500" style="enable-background:new 0 0 500 500;" xml:space="preserve">
<style type="text/css">
	.st0{fill:#FFD74A;}
	.st1{fill:#F9A602;}
</style>
<circle class="st0" cx="250" cy="250" r="250"/>
<circle class="st1" cx="249" cy="249" r="205"/>
<path class="st0" d="M417.3,216c-53-50.9-113.7-61.2-157.3,8.7c4.9-39.3,20.9-72.1,14.2-112.5C272.8,103.9,262.6,48,250,48
	c-13,0-22.6,53.7-24.3,64.2c-6.7,41,9.3,72.2,14.3,112.4c-43.9-70.2-124.9-64.2-167.3,5.3c67.3-34,134.6-19.6,153.2,60.7
	c4.5,21-4.5,39.4-2.4,57c1,8.1,27.9,104.4,26.6,104.4c-1.5,0,25.6-96.4,26.6-104.4c2.1-18-7.2-36.3-2.4-57
	c18.5-80.3,85.9-94.6,153.2-60.7C424.1,225.4,421,220.2,417.3,216C364.3,165.1,421,220.2,417.3,216z"/>
</svg>
